<svg xmlns="http://www.w3.org/2000/svg" data-name="Layer 1" width="856.12205" height="674" viewBox="0 0 856.12205 674" xmlns:xlink="http://www.w3.org/1999/xlink">
    <path
        d="M593.26357,266.136h-3.54069V169.13919A56.13918,56.13918,0,0,0,533.58377,113H328.0828a56.13913,56.13913,0,0,0-56.13933,56.13893v532.1324a56.13909,56.13909,0,0,0,56.13905,56.13917h205.501a56.13914,56.13914,0,0,0,56.13933-56.13895V335.18h3.54069Z"
        transform="translate(-171.93898 -113)"
        fill="#000"
    />
    <path
        d="M535.426,128.93322H508.60134A19.918,19.918,0,0,1,490.16,156.37379H372.4311a19.91806,19.91806,0,0,1-18.44139-27.44057H328.93542a41.92409,41.92409,0,0,0-41.92413,41.924V702.20874a41.92407,41.92407,0,0,0,41.92408,41.92408H535.426a41.92411,41.92411,0,0,0,41.92414-41.924V170.8573a41.92407,41.92407,0,0,0-41.92408-41.92408Zm-4.50666,246.49737a10.8911,10.8911,0,0,1-10.8592,10.8592H467.574a10.89109,10.89109,0,0,1-10.8592-10.8592v-2.7148a10.89111,10.89111,0,0,1,10.8592-10.8592h52.48612a10.89115,10.89115,0,0,1,10.8592,10.8592Zm5.88207-47.96146a10.89111,10.89111,0,0,1-10.8592,10.8592H337.7161a10.89109,10.89109,0,0,1-10.8592-10.8592v-2.7148a10.89112,10.89112,0,0,1,10.8592-10.8592H525.94221a10.89116,10.89116,0,0,1,10.8592,10.8592Zm0-47.96146a10.89111,10.89111,0,0,1-10.8592,10.8592H337.7161a10.89109,10.89109,0,0,1-10.8592-10.8592v-2.7148a10.89112,10.89112,0,0,1,10.8592-10.8592H525.94221a10.89116,10.89116,0,0,1,10.8592,10.8592Zm0-47.96146a10.8911,10.8911,0,0,1-10.8592,10.8592H337.7161a10.89109,10.89109,0,0,1-10.8592-10.8592v-2.7148a10.89111,10.89111,0,0,1,10.8592-10.8592H525.94221a10.89116,10.89116,0,0,1,10.8592,10.8592Z"
        transform="translate(-171.93898 -113)"
        fill="#fff"
    />
    <circle cx="169.84933" cy="213.56423" r="6.33453" fill="#fff" />
    <circle cx="190.66279" cy="213.56423" r="6.33453" fill="#fff" />
    <circle cx="211.47625" cy="213.56423" r="6.33453" fill="#fff" />
    <circle cx="232.28972" cy="213.56423" r="6.33453" fill="#fff" />
    <circle cx="300.15971" cy="261.52569" r="6.33453" fill="#fff" />
    <circle cx="320.97317" cy="261.52569" r="6.33453" fill="#fff" />
    <circle cx="341.78664" cy="261.52569" r="6.33453" fill="#fff" />
    <path
        d="M538.25762,456.6012H323.5908a19.01566,19.01566,0,0,0-19.01568,19.01563v104.59a19.01571,19.01571,0,0,0,19.01566,19.01571H538.25762a19.0157,19.0157,0,0,0,19.0157-19.01565V475.61688a19.01566,19.01566,0,0,0-19.0156-19.01568Zm-219.978,12.97163c.42392-.07665,10.47581-1.78725,18.79934,3.22117,8.323,5.00748,11.52088,14.6906,11.65264,15.1l.33649,1.04412-1.0801.19161a28.669,28.669,0,0,1-4.65836.34214,27.73763,27.73763,0,0,1-14.14144-3.56421c-8.323-5.00653-11.52041-14.6897-11.65221-15.09912l-.33651-1.04411Zm46.59851,97.10524H326.59051a10.52909,10.52909,0,0,1,0-21.05818h38.28762a10.52909,10.52909,0,0,1,0,21.05818Zm174.2086-1.91436A11.5201,11.5201,0,0,1,527.60041,576.25H498.88473a11.5201,11.5201,0,0,1-11.48627-11.48627V547.53425A11.52,11.52,0,0,1,498.88473,536.048h28.71568a11.52,11.52,0,0,1,11.48627,11.48627Z"
        transform="translate(-171.93898 -113)"
        fill="#000"
    />
    <path d="M508.14328,561.21324H496.5975a3.10848,3.10848,0,0,0,0,6.217h11.54578a3.10849,3.10849,0,0,0,0-6.217Z" transform="translate(-171.93898 -113)" fill="#000" />
    <path d="M529.45864,561.21324H517.91281a3.10848,3.10848,0,0,0,0,6.217H529.4586a3.10849,3.10849,0,0,0,0-6.217Z" transform="translate(-171.93898 -113)" fill="#000" />
    <path d="M508.14155,552.43841H496.59576a3.10848,3.10848,0,0,0,0,6.217h11.54579a3.10848,3.10848,0,0,0,0-6.217Z" transform="translate(-171.93898 -113)" fill="#000" />
    <path d="M529.45691,552.43841H517.91107a3.10848,3.10848,0,0,0,0,6.217h11.54579a3.10848,3.10848,0,0,0,0-6.217Z" transform="translate(-171.93898 -113)" fill="#000" />
    <path d="M508.14155,543.84123H496.59576a3.10848,3.10848,0,0,0,0,6.217h11.54579a3.10848,3.10848,0,0,0,0-6.217Z" transform="translate(-171.93898 -113)" fill="#000" />
    <path d="M529.45691,543.84123H517.91107a3.10848,3.10848,0,0,0,0,6.217h11.54579a3.10848,3.10848,0,0,0,0-6.217Z" transform="translate(-171.93898 -113)" fill="#000" />
    <rect x="487" y="383.00001" width="28" height="27.99999" fill="#000" />
    <path d="M625.939,513h46v46h-46Zm44,2h-42v42h42Z" transform="translate(-171.93898 -113)" fill="#fff" />
    <rect y="152.00001" width="28" height="28" fill="#000" />
    <path d="M232.939,276h-46V230h46Zm-44-2h42V232h-42Z" transform="translate(-171.93898 -113)" fill="#fff" />
</svg>
